<svg width="203" height="32" viewBox="0 0 203 32" fill="none" xmlns="http://www.w3.org/2000/svg">
<circle cx="12" cy="12" r="12" transform="matrix(0 -1 -1 0 28 28)" fill="url(#paint0_angular_545_248)"/>
<path d="M36 27.5514V4.42056H41.8176C43.3244 4.42056 44.7242 4.71495 46.017 5.30374C47.3098 5.89252 48.4399 6.71495 49.4074 7.77103C50.3834 8.8271 51.1411 10.0561 51.6804 11.4579C52.2284 12.8598 52.5023 14.3738 52.5023 16C52.5023 17.6355 52.2327 19.1542 51.6933 20.5561C51.1539 21.9486 50.3962 23.1729 49.4202 24.229C48.4527 25.2757 47.3183 26.0935 46.017 26.6822C44.7242 27.2617 43.3244 27.5514 41.8176 27.5514H36ZM40.1609 23.486H41.3552C42.3141 23.486 43.2002 23.2991 44.0136 22.9252C44.8269 22.5514 45.5333 22.028 46.1326 21.3551C46.7319 20.6822 47.1985 19.8925 47.5324 18.986C47.8663 18.0701 48.0332 17.0701 48.0332 15.986C48.0332 14.9112 47.8663 13.9206 47.5324 13.014C47.1985 12.0981 46.7319 11.3037 46.1326 10.6308C45.5333 9.9486 44.8269 9.42056 44.0136 9.04673C43.2002 8.6729 42.3141 8.48598 41.3552 8.48598H40.1609V23.486Z" fill="white"/>
<path d="M62.0441 27.5514V4.42056H73.8333V8.40187H66.205V13.9673H73.5251V17.9486H66.205V23.5701H73.8333V27.5514H62.0441Z" fill="white"/>
<path d="M89.7978 28C88.8133 28 87.9057 27.8785 87.0753 27.6355C86.2448 27.4019 85.4999 27.1075 84.8407 26.7523C84.19 26.3878 83.6293 26.014 83.1584 25.6308C82.6875 25.2477 82.3151 24.9112 82.0411 24.6215L84.1729 20.8645C84.4554 21.1355 84.7936 21.4393 85.1875 21.7757C85.5813 22.1121 86.0222 22.4346 86.5102 22.743C86.9982 23.0421 87.5247 23.2944 88.0898 23.5C88.6634 23.6963 89.2713 23.7944 89.9134 23.7944C90.5127 23.7944 91.0393 23.6916 91.493 23.486C91.9553 23.2804 92.3192 22.9766 92.5846 22.5748C92.85 22.1636 92.9827 21.6542 92.9827 21.0467C92.9827 20.4953 92.8757 20.028 92.6617 19.6449C92.4476 19.2523 92.1309 18.9019 91.7113 18.5935C91.3004 18.2757 90.791 17.9673 90.1831 17.6682C89.5838 17.3598 88.8989 17.0234 88.1283 16.6589C87.5547 16.3785 87.0068 16.0607 86.4845 15.7056C85.9708 15.3411 85.5128 14.9206 85.1104 14.4439C84.708 13.9673 84.3869 13.4299 84.1472 12.8318C83.9161 12.2243 83.8005 11.5467 83.8005 10.7991C83.8005 9.91121 83.9632 9.06075 84.2885 8.24766C84.6138 7.43458 85.0761 6.71028 85.6755 6.07477C86.2833 5.43925 87.0025 4.93458 87.833 4.56075C88.672 4.18692 89.6052 4 90.6326 4C91.4031 4 92.1737 4.11215 92.9442 4.33645C93.7147 4.56075 94.4339 4.85514 95.1017 5.21963C95.7695 5.58411 96.3346 5.98131 96.7969 6.41122L95.0632 9.97196C94.695 9.62617 94.2755 9.31776 93.8046 9.04673C93.3423 8.76636 92.8457 8.54206 92.3149 8.37383C91.7927 8.20561 91.2619 8.1215 90.7225 8.1215C90.1146 8.1215 89.5966 8.23832 89.1686 8.47196C88.749 8.70561 88.4237 9.01869 88.1925 9.41122C87.9699 9.79439 87.8586 10.2243 87.8586 10.7009C87.8586 11.0935 87.9314 11.4299 88.077 11.7103C88.2311 11.9813 88.4451 12.2196 88.7191 12.4252C88.993 12.6215 89.3227 12.8131 89.7079 13C90.0932 13.1776 90.517 13.3692 90.9793 13.5748C91.9725 14.0327 92.8714 14.486 93.6762 14.9346C94.481 15.3832 95.1702 15.8832 95.7438 16.4346C96.3174 16.9766 96.7541 17.6121 97.0537 18.3411C97.3619 19.0701 97.5161 19.9393 97.5161 20.9486C97.5161 22.4252 97.1907 23.6916 96.54 24.7477C95.8979 25.8037 94.999 26.6121 93.8432 27.1729C92.6873 27.7243 91.3389 28 89.7978 28Z" fill="white"/>
<path d="M107.134 27.5514V4.42056H111.295V27.5514H107.134Z" fill="white"/>
<path d="M131.304 28C129.849 28 128.492 27.6963 127.233 27.0888C125.975 26.4813 124.874 25.6355 123.933 24.5514C122.991 23.4579 122.255 22.1822 121.724 20.7243C121.193 19.2664 120.928 17.6869 120.928 15.986C120.928 14.3598 121.176 12.8271 121.672 11.3879C122.169 9.93925 122.884 8.66355 123.817 7.56075C124.75 6.4486 125.876 5.57944 127.195 4.95327C128.513 4.31776 129.99 4 131.625 4C132.55 4 133.479 4.11215 134.412 4.33645C135.354 4.56075 136.257 4.89252 137.122 5.33178C137.986 5.76168 138.766 6.28972 139.459 6.91589L137.507 10.4346C136.762 9.67757 135.859 9.09346 134.797 8.68224C133.744 8.26168 132.704 8.0514 131.677 8.0514C130.666 8.0514 129.772 8.24766 128.993 8.64019C128.222 9.02336 127.571 9.56542 127.041 10.2664C126.51 10.9673 126.107 11.7897 125.833 12.7336C125.559 13.6682 125.422 14.6869 125.422 15.7897C125.422 16.9953 125.577 18.0888 125.885 19.0701C126.193 20.0514 126.621 20.8972 127.169 21.6075C127.725 22.3178 128.372 22.8645 129.108 23.2477C129.853 23.6308 130.654 23.8224 131.51 23.8224C132.195 23.8224 132.854 23.7009 133.487 23.4579C134.129 23.2056 134.699 22.8551 135.195 22.4065C135.692 21.9579 136.086 21.4299 136.377 20.8224C136.668 20.215 136.814 19.5514 136.814 18.8318V18.4813H131.253V14.9626H141.051V18.4673C141.051 19.8785 140.782 21.1682 140.242 22.3364C139.712 23.4953 138.984 24.5 138.059 25.3505C137.135 26.1916 136.09 26.8458 134.926 27.3131C133.761 27.771 132.554 28 131.304 28Z" fill="white"/>
<path d="M150.594 27.5514V4.42056H154.755L163.886 19.9813V4.42056H168.047V27.5514H163.886L154.755 11.9907V27.5514H150.594Z" fill="white"/>
<path d="M188.315 28C186.834 28 185.447 27.6916 184.154 27.0748C182.862 26.4579 181.727 25.6028 180.751 24.5093C179.775 23.4065 179.009 22.1308 178.452 20.6822C177.904 19.2243 177.63 17.6636 177.63 16C177.63 14.3364 177.904 12.7804 178.452 11.3318C179.009 9.87383 179.775 8.59813 180.751 7.50467C181.727 6.40187 182.862 5.54206 184.154 4.92523C185.447 4.30841 186.834 4 188.315 4C189.796 4 191.183 4.30841 192.476 4.92523C193.769 5.54206 194.903 6.40187 195.879 7.50467C196.855 8.59813 197.617 9.87383 198.165 11.3318C198.722 12.7804 199 14.3364 199 16C199 17.6636 198.722 19.2243 198.165 20.6822C197.617 22.1308 196.855 23.4065 195.879 24.5093C194.903 25.6028 193.769 26.4579 192.476 27.0748C191.183 27.6916 189.796 28 188.315 28ZM188.302 23.6262C189.21 23.6262 190.04 23.4393 190.794 23.0654C191.547 22.6916 192.202 22.1636 192.759 21.4813C193.315 20.7991 193.747 19.9953 194.056 19.0701C194.364 18.1355 194.518 17.1121 194.518 16C194.518 14.8879 194.364 13.8692 194.056 12.9439C193.747 12.0093 193.315 11.2009 192.759 10.5187C192.202 9.83645 191.547 9.30841 190.794 8.93458C190.04 8.56075 189.21 8.37383 188.302 8.37383C187.412 8.37383 186.586 8.56075 185.824 8.93458C185.07 9.30841 184.415 9.83645 183.859 10.5187C183.302 11.2009 182.87 12.0093 182.562 12.9439C182.262 13.8692 182.112 14.8879 182.112 16C182.112 17.1121 182.262 18.1355 182.562 19.0701C182.87 19.9953 183.302 20.7991 183.859 21.4813C184.415 22.1636 185.07 22.6916 185.824 23.0654C186.586 23.4393 187.412 23.6262 188.302 23.6262Z" fill="white"/>
<defs>
<radialGradient id="paint0_angular_545_248" cx="0" cy="0" r="1" gradientUnits="userSpaceOnUse" gradientTransform="translate(12 12) scale(12)">
<stop stop-color="#E7806B" stop-opacity="0.0104246"/>
<stop offset="1" stop-color="#E7806B"/>
</radialGradient>
</defs>
</svg>
